<svg version="1.1" xmlns="http://www.w3.org/2000/svg" viewBox="0 0 184.079347216619 242.44021905266436" width="368.158694433238" height="484.8804381053287"><!-- svg-source:excalidraw --><metadata></metadata><defs><style class="style-fonts">
      </style></defs><rect x="0" y="0" width="184.079347216619" height="242.44021905266436" fill="#ffffff"></rect><g stroke-opacity="0.8" fill-opacity="0.8" stroke-linecap="round" transform="translate(21.01371161534098 23.450533001195254) rotate(0 39.099671815855686 36.92746782608583)"><path d="M5.94 17.09 C5.94 17.09, 5.94 17.09, 5.94 17.09 M5.94 17.09 C5.94 17.09, 5.94 17.09, 5.94 17.09 M-4.99 37.96 C7.17 31.92, 17.6 24.74, 32.97 2.65 M-2.33 35.92 C8.32 27.11, 18.12 13.7, 29.42 3.76 M-0.53 48.87 C8.32 39.41, 16.21 29.79, 40.54 -0.89 M2.66 45.59 C15.86 30.95, 28.99 14.04, 40.45 2.82 M6.65 51.05 C15.12 45.99, 22.44 31.27, 48.71 4.57 M3.47 52.84 C17.84 40.58, 30.57 23.26, 51.59 2.49 M5.41 62.02 C26.99 43.55, 45.44 23.32, 54.88 4.79 M7.4 61.75 C20.59 48.98, 33.28 32.28, 58.19 7.1 M14.84 65.98 C27.27 55.67, 39.62 37.7, 60.56 8.33 M15.65 68.12 C33.78 48.8, 47.79 29.74, 63.53 11.61 M24.52 72.5 C37.11 61.91, 43.09 43.47, 67.57 16.73 M24.3 72.46 C35.44 57.39, 47.11 40.52, 69.76 16.1 M33.96 73.83 C45.94 61.3, 57.75 47.44, 78.29 22.64 M30.4 73.61 C39.15 61.77, 50.46 52.85, 74.88 22.23 M44.83 75.04 C53.67 63.15, 57.38 51.12, 79.11 31.1 M40.93 73.23 C54.88 58.13, 71.14 40.93, 78.79 30.89 M51.97 70.2 C59.9 61.53, 66.1 55.34, 75.49 48.85 M54.46 72.23 C60.66 66.99, 65.67 59.6, 75.12 49.68" stroke="#ffffff" stroke-width="1" fill="none"></path><path d="M46.41 1.55 C53.97 2.76, 64.26 9.17, 69.69 14.38 C75.11 19.6, 78.62 26.15, 78.97 32.86 C79.32 39.57, 75.97 48.32, 71.8 54.65 C67.63 60.98, 61.2 67.54, 53.96 70.83 C46.73 74.13, 36.03 75.92, 28.39 74.43 C20.75 72.94, 13.1 67.85, 8.13 61.9 C3.16 55.95, -1.09 46.22, -1.43 38.73 C-1.78 31.24, 2.1 23.17, 6.05 16.97 C10 10.77, 11.67 1.95, 22.27 1.52 C32.88 1.1, 60.44 8.87, 69.68 14.42 C78.93 19.96, 78.57 34.55, 77.74 34.79 M70.62 15.86 C75.05 21.59, 79.27 30.25, 79.56 37.91 C79.85 45.57, 77.23 56.19, 72.36 61.8 C67.48 67.41, 57.61 70.3, 50.32 71.57 C43.02 72.83, 36.11 71.49, 28.6 69.38 C21.1 67.26, 10.25 64.5, 5.29 58.9 C0.32 53.29, -1.17 43.07, -1.2 35.77 C-1.23 28.48, 0.63 20.94, 5.1 15.13 C9.56 9.32, 17.73 3.39, 25.62 0.92 C33.51 -1.55, 45.02 -2.59, 52.43 0.31 C59.84 3.2, 66.9 15.36, 70.1 18.29 C73.29 21.23, 72.32 17.51, 71.61 17.91" stroke="#000000" stroke-width="2" fill="none"></path></g><g stroke-linecap="round"><g stroke-opacity="0.8" fill-opacity="0.8" transform="translate(44.90795550280791 97.30546865336737) rotate(0 22.540061562496476 29.64068232766499)" fill-rule="evenodd"><path d="M0 0 C0 0, 0 0, 0 0 M0 0 C0 0, 0 0, 0 0 M-1.16 11.76 C-0.55 9.98, 2.44 5.99, 11.01 -1.94 M0.95 10.85 C4.09 9.45, 4.95 6.31, 9.33 -1.24 M4.18 27.9 C7.83 17.29, 11.99 10.57, 26.36 -4 M0.2 26.04 C4.57 19.62, 9.29 11.14, 21.28 -3.5 M4.31 39.77 C14.61 23.62, 23.6 7.85, 35.05 -7.01 M-1.06 35.63 C8.51 28.35, 15.32 18.28, 35.04 -5.7 M-4.25 53.92 C14.59 29.33, 31.95 11.99, 43.48 3.46 M-2.13 50.1 C9.66 38.41, 18.55 23, 40.53 2.18 M-2.39 58.86 C7.84 51.72, 17.79 36.61, 46.65 6.51 M-1.76 60.45 C11.1 49.55, 20.2 41.37, 43.28 7.79 M7.61 67.68 C16.39 49.08, 27.91 38.09, 45.51 17.52 M6.99 62.86 C19.42 52.27, 27.94 38.4, 44.04 20.45 M14.48 65.26 C22.2 52.92, 35.29 46.37, 43.6 31.92 M15.88 66.18 C26.9 53.52, 36.88 42.45, 44.24 33.23 M25.17 64.52 C30 59.68, 37.89 53.43, 46.13 49.38 M25.43 66.54 C33.12 58.41, 39.52 49.09, 43.59 47.49" stroke="#ffffff" stroke-width="1" fill="none"></path><path d="M0.66 -1.75 C1.05 3.5, 1.28 22.45, 1.29 33.45 C1.31 44.45, -5.95 59.35, 0.76 64.25 C7.46 69.15, 34.4 69.66, 41.53 62.85 C48.66 56.03, 44.31 34.49, 43.52 23.36 C42.74 12.23, 41.26 0.37, 36.83 -3.93 C32.41 -8.23, 22.74 -2.79, 16.97 -2.44 C11.2 -2.08, 4.82 -1.83, 2.21 -1.78 M-2.43 3.48 C-2.21 8.8, -0.58 26.42, -0.29 35.74 C0.01 45.06, -7.89 55.77, -0.64 59.4 C6.62 63.02, 35.16 63.43, 43.24 57.49 C51.32 51.56, 48.55 34.44, 47.85 23.77 C47.14 13.11, 43.93 -2.83, 39.01 -6.5 C34.09 -10.17, 24.68 1.29, 18.35 1.78 C12.01 2.27, 4.36 -3.6, 0.99 -3.56" stroke="#000000" stroke-width="2" fill="none"></path></g></g><mask></mask><g stroke-linecap="round"><g stroke-opacity="0.8" fill-opacity="0.8" transform="translate(45.8800515209648 162.2796531659087) rotate(0 -14.85378545103913 33.27247941032829)"><path d="M-3.51 1.08 C0.46 22.58, -0.12 36.99, -3.12 57.56 M1.58 -1.27 C0.31 16.13, -2.31 35.72, -2.49 58.79 M-1.02 60.32 C-11.12 62.82, -10.97 66.63, -32.49 65.67 M-0.32 62.23 C-9.99 61.89, -16.65 62.56, -30.8 67.21" stroke="#000000" stroke-width="2" fill="none"></path></g></g><mask></mask><g stroke-linecap="round"><g stroke-opacity="0.8" fill-opacity="0.8" transform="translate(86.28234794779246 158.71474465765914) rotate(0 14.853785451039357 35.94616079151547)"><path d="M1.79 2.96 C1.07 19.8, -1.65 41.01, 0.88 63.79 M0.95 -1.56 C0.12 14.32, 0.82 26.17, -0.12 64.74 M-1.64 64.67 C15.3 69.89, 18.87 68.86, 29.58 73.73 M1.21 63.67 C11.6 64.45, 17.49 69.04, 28.9 71.72" stroke="#000000" stroke-width="2" fill="none"></path></g></g><mask></mask><g stroke-linecap="round"><g stroke-opacity="0.8" fill-opacity="0.8" transform="translate(105.98539625973672 109.21912352087475) rotate(0 -9.604163559371273 -7.527082897616538)"><path d="M0.9 -1.11 C-7.02 -6.3, -12.79 -9.9, -20.85 -13.48 M-0.58 0.16 C-4.96 -4.61, -9.8 -6.98, -18.63 -14.86" stroke="#000000" stroke-width="2" fill="none"></path></g></g><mask></mask><g stroke-linecap="round"><g stroke-opacity="0.8" fill-opacity="0.8" transform="translate(44.08374008200644 94.54639150916864) rotate(0 24.426210367953786 23.999560133428986)"><path d="M-1.34 -3.04 C-7.87 17.34, -18.85 38.83, -23.93 49.89 M-0.71 -1.81 C-6.61 11.3, -8.88 21.76, -21.52 46.58 M-24.16 47.12 C6.7 41.73, 35.57 36.05, 73.49 26.39 M-22.47 48.66 C2.66 43.32, 26.71 37.96, 68.69 25.92" stroke="#000000" stroke-width="2" fill="none"></path></g></g><mask></mask><g stroke-opacity="0.8" fill-opacity="0.8" transform="translate(71.6922994189506 62.38945637921779) rotate(0 0.00005213289580296987 0.00005213289568928303)" stroke="none"><path fill="#000000" d="M 1.57,-1.57 Q 1.57,-1.57 1.77,-1.27 1.98,-0.98 2.09,-0.64 2.20,-0.29 2.19,0.05 2.18,0.41 2.05,0.75 1.93,1.09 1.70,1.37 1.48,1.65 1.18,1.84 0.87,2.04 0.52,2.12 0.18,2.21 -0.17,2.18 -0.53,2.15 -0.86,2.01 -1.19,1.87 -1.46,1.63 -1.73,1.39 -1.90,1.07 -2.08,0.76 -2.15,0.41 -2.21,0.05 -2.17,-0.29 -2.12,-0.65 -1.96,-0.97 -1.80,-1.29 -1.54,-1.54 -1.29,-1.80 -0.97,-1.96 -0.65,-2.12 -0.29,-2.17 0.06,-2.21 0.41,-2.15 0.76,-2.08 1.07,-1.90 1.39,-1.73 1.63,-1.46 1.87,-1.19 2.01,-0.86 2.15,-0.53 2.18,-0.17 2.21,0.18 2.12,0.52 2.03,0.87 1.84,1.18 1.65,1.48 1.37,1.70 1.09,1.93 0.75,2.05 0.41,2.18 0.05,2.19 -0.30,2.20 -0.64,2.09 -0.98,1.98 -1.27,1.77 -1.57,1.56 -1.57,1.57 -1.57,1.57 -1.73,1.35 -1.90,1.14 -2.01,0.90 -2.12,0.66 -2.16,0.39 -2.21,0.13 -2.20,-0.13 -2.18,-0.40 -2.10,-0.65 -2.02,-0.91 -1.88,-1.14 -1.74,-1.36 -1.55,-1.55 -1.36,-1.74 -1.14,-1.88 -0.91,-2.02 -0.65,-2.10 -0.40,-2.18 -0.13,-2.20 0.13,-2.21 0.39,-2.16 0.66,-2.12 0.90,-2.01 1.14,-1.90 1.35,-1.73 1.57,-1.57 1.57,-1.57 L 1.57,-1.57 Z"></path></g><g stroke-opacity="0.8" fill-opacity="0.8" transform="translate(85.66036570677488 58.89703368934124) rotate(0 0 -0.7520343036264876)" stroke="none"><path d="" stroke="#ffffff" stroke-width="0.5" fill="none"></path><path fill="#000000" d="M 2.12,-0.66 Q 2.12,-0.66 2.15,-0.13 2.18,0.40 1.96,0.88 1.74,1.36 1.32,1.69 0.91,2.02 0.38,2.12 -0.13,2.21 -0.64,2.05 -1.14,1.90 -1.52,1.52 -1.90,1.14 -2.05,0.64 -2.21,0.13 -2.12,-0.38 -2.02,-0.91 -1.69,-1.32 -1.36,-1.74 -0.88,-1.96 -0.39,-2.18 0.13,-2.15 0.66,-2.11 1.11,-1.84 1.57,-1.56 1.84,-1.11 L 2.12,-0.66 Z"></path></g><g stroke-linecap="round"><g stroke-opacity="0.8" fill-opacity="0.8" transform="translate(90.10363138465686 71.88735099926635) rotate(25.810438890233822 -6.314320980234697 3.507956100130741)"><path d="M0.43 -0.35 C-0.24 0.55, -1.87 3.72, -4.1 4.97 C-6.33 6.21, -11.49 6.85, -12.95 7.1 M-0.01 0.66 C-0.73 1.66, -2.15 4.26, -4.39 5.44 C-6.64 6.63, -12.05 7.53, -13.46 7.75" stroke="#000000" stroke-width="1" fill="none"></path></g></g><mask></mask><g stroke-linecap="round"><g transform="translate(109.73582728935071 90.18659839919565) rotate(0 24.60473966039706 25.39348083572463)" fill-rule="evenodd"><path d="M0 0 C0 0, 0 0, 0 0 M0 0 C0 0, 0 0, 0 0 M-2.23 8.66 C4.85 -0.24, 8.92 -6.45, 14.17 -10.21 M-2.23 8.66 C3.33 3.36, 7.31 -2.61, 14.17 -10.21 M-3.8 16.57 C2.24 8.1, 12.46 -0.97, 19.81 -10.6 M-3.8 16.57 C5.07 5.16, 14.47 -6.24, 19.81 -10.6 M-6.03 25.23 C4.49 16.96, 12.8 5.56, 21.52 -6.47 M-6.03 25.23 C2.63 14.09, 11.75 5.03, 21.52 -6.47 M-8.26 33.89 C0.62 24.48, 6.68 17.05, 22.57 -1.58 M-8.26 33.89 C-0.16 24.59, 7.59 16.61, 22.57 -1.58 M-10.49 42.55 C-1.74 34.8, 4.09 24.68, 23.62 3.31 M-10.49 42.55 C1.22 29.81, 11.71 15.14, 23.62 3.31 M-12.07 50.46 C1.84 35.38, 15.1 16.98, 41.08 -10.67 M-12.07 50.46 C1.68 34.12, 16.37 15.76, 41.08 -10.67 M-12.33 56.86 C-0.12 43.19, 14.08 27.03, 42.13 -5.78 M-12.33 56.86 C8.83 33.52, 30.15 9.6, 42.13 -5.78 M-13.24 64.01 C7.58 39.53, 29.9 13.46, 43.83 -1.65 M-13.24 64.01 C2.59 44.75, 19.11 27.54, 43.83 -1.65 M-11.54 68.15 C7.42 46.78, 25.55 27, 59.97 -14.12 M-11.54 68.15 C5.34 48.97, 23.61 27.75, 59.97 -14.12 M-1.3 62.47 C17.44 39.31, 36.2 18.08, 63.65 -12.25 M-1.3 62.47 C17.51 40.21, 38.19 18.31, 63.65 -12.25 M8.93 56.79 C28.17 33.94, 49.48 10.83, 62.07 -4.34 M8.93 56.79 C25.72 37.35, 42.28 16.59, 62.07 -4.34 M11.95 59.42 C22.85 43.32, 39.44 29.76, 59.84 4.32 M11.95 59.42 C29.42 39.89, 46.76 17.89, 59.84 4.32 M14.31 62.79 C26.78 46.64, 39.99 33.05, 58.27 12.23 M14.31 62.79 C28.97 44.75, 44.97 28.53, 58.27 12.23 M33.08 47.31 C39.45 37.33, 49.76 28.25, 56.04 20.89 M33.08 47.31 C40.92 38.06, 49.46 28.15, 56.04 20.89 M34.79 51.44 C41.76 42.67, 48.06 34.9, 53.16 30.31 M34.79 51.44 C38.4 46.52, 42.82 41.5, 53.16 30.31 M36.49 55.57 C41.25 50.59, 46.76 46.55, 50.27 39.72 M36.49 55.57 C41.5 50.93, 45.86 44.63, 50.27 39.72 M38.2 59.71 C42.36 56.26, 42.73 52.89, 47.38 49.14 M38.2 59.71 C40.21 57.35, 43.31 53.73, 47.38 49.14" stroke="#868e96" stroke-width="0.5" fill="none"></path><path d="M0.57 -0.94 C-2.08 10.17, -16.04 56.53, -14.95 65.87 C-13.86 75.21, 1.92 55.25, 7.12 55.11 C12.31 54.98, 12.1 66.59, 16.23 65.07 C20.37 63.56, 27.56 46.99, 31.94 46 C36.32 45.01, 37.25 69.1, 42.53 59.14 C47.81 49.19, 62.98 -3.62, 63.62 -13.73 C64.25 -23.84, 50.51 -1.47, 46.33 -1.51 C42.16 -1.55, 42.09 -14.92, 38.56 -13.98 C35.03 -13.05, 28.44 3.62, 25.15 4.1 C21.87 4.59, 23.04 -10.34, 18.85 -11.07 C14.66 -11.8, 2.99 -1.98, 0.02 -0.3 M-0.59 1.19 C-2.93 11.97, -13.72 54.74, -12.6 63.85 C-11.48 72.96, 1.35 55.44, 6.13 55.86 C10.91 56.28, 11.95 67.92, 16.07 66.36 C20.19 64.8, 26.2 47.35, 30.83 46.51 C35.47 45.67, 38.31 71.48, 43.9 61.32 C49.48 51.15, 64.03 -3.87, 64.34 -14.47 C64.65 -25.07, 49.75 -2.13, 45.76 -2.29 C41.78 -2.44, 43.67 -16.38, 40.41 -15.38 C37.15 -14.39, 29.68 3.31, 26.21 3.67 C22.75 4.03, 24.23 -12.47, 19.63 -13.23 C15.03 -13.99, 1.59 -3.31, -1.39 -0.88" stroke="#000000" stroke-width="1" fill="none"></path></g></g><mask></mask><g stroke-linecap="round"><g transform="translate(102.36023402542264 120.6416244807192) rotate(0 4.656096667750035 -4.835177308817492)"><path d="M-0.21 0.06 C1.3 -1.56, 7.64 -8.39, 9.19 -9.99 M0.34 -0.22 C1.77 -1.78, 7.26 -8.04, 8.84 -9.71" stroke="#000000" stroke-width="1" fill="none"></path></g></g><mask></mask><g stroke-linecap="round"><g transform="translate(160.02420044909695 104.88252806679566) rotate(0 2.5071289749423613 2.8652902570770493)"><path d="M-0.13 -0.32 C0.7 0.64, 3.89 4.81, 4.78 5.83 M0.45 0.28 C1.42 1.13, 4.68 4.27, 5.46 5.26" stroke="#000000" stroke-width="1" fill="none"></path></g></g><mask></mask><g stroke-linecap="round"><g transform="translate(157.87523275628928 111.6875924273536) rotate(0 4.835177308817379 -0.8954032053366063)"><path d="M-0.23 0.1 C1.43 -0.13, 8.23 -1.37, 9.88 -1.72 M0.29 -0.15 C1.94 -0.47, 8.19 -2.04, 9.7 -2.31" stroke="#000000" stroke-width="1" fill="none"></path></g></g><mask></mask><g stroke-linecap="round"><g transform="translate(134.01702434096114 95.55064120107318) rotate(0 -8.218378311305855 25.543608264869363)"><path d="M0.7 0.23 C-1.92 8.54, -13.69 41.57, -16.52 50.24 M-0.39 -0.7 C-3.11 7.72, -14.75 42.79, -17.51 51.33" stroke="#000000" stroke-width="1" fill="none"></path></g></g><mask></mask><g stroke-linecap="round"><g transform="translate(153.56343762190454 90.21980121536126) rotate(0 -6.441431649401807 22.87818827201363)"><path d="M-0.04 -0.39 C-2.23 7.31, -10.74 38.66, -12.81 46.29 M-0.72 0.6 C-3 8.15, -11.23 38.07, -13.21 45.6" stroke="#000000" stroke-width="1" fill="none"></path></g></g><mask></mask><g stroke-linecap="round"><g transform="translate(17.244320489930487 75.1158775907611) rotate(0 47.24995177730477 -31.783240943726696)" fill-rule="evenodd"><path d="M-1.82 2.16 C14.86 -7.91, 89.27 -50.5, 100.9 -59.18 C112.53 -67.86, 75.31 -50.78, 67.93 -49.91 C60.55 -49.05, 59.65 -53.09, 56.62 -53.99 C53.59 -54.89, 52.1 -54.12, 49.74 -55.33 C47.39 -56.53, 46.29 -60.09, 42.51 -61.23 C38.72 -62.37, 32.41 -63.33, 27.03 -62.15 C21.64 -60.97, 13.97 -56.2, 10.19 -54.13 C6.41 -52.07, 7.18 -52.92, 4.36 -49.75 C1.53 -46.58, -5.37 -39.71, -6.76 -35.11 C-8.15 -30.51, -5.49 -27.86, -3.97 -22.17 C-2.44 -16.49, 1.38 -4.44, 2.4 -1.01" stroke="none" stroke-width="0" fill="#fab005" fill-rule="evenodd"></path><path d="M0.15 1.16 C16.97 -8.58, 89.72 -51.11, 100.81 -59.3 C111.9 -67.49, 73.67 -48.96, 66.7 -47.97 C59.74 -46.97, 61.66 -51.92, 59.02 -53.33 C56.37 -54.75, 53.99 -54.71, 50.85 -56.47 C47.7 -58.22, 44.07 -62.69, 40.13 -63.87 C36.18 -65.04, 32.21 -65.09, 27.17 -63.5 C22.13 -61.91, 14.15 -56.85, 9.88 -54.33 C5.61 -51.81, 4.25 -51.58, 1.55 -48.37 C-1.14 -45.17, -4.95 -39.44, -6.27 -35.1 C-7.59 -30.76, -7.43 -28.07, -6.36 -22.34 C-5.29 -16.61, -0.84 -4.6, 0.14 -0.72 M-1.23 0.72 C15.51 -8.81, 89.15 -50.3, 100.32 -58.2 C111.49 -66.1, 72.59 -47.67, 65.8 -46.67 C59 -45.67, 62.21 -50.12, 59.55 -52.21 C56.89 -54.3, 52.84 -57.08, 49.83 -59.22 C46.83 -61.37, 45.74 -64.65, 41.55 -65.06 C37.35 -65.47, 29.57 -63.45, 24.67 -61.69 C19.78 -59.92, 15.74 -56.44, 12.17 -54.46 C8.61 -52.49, 6.34 -52.99, 3.29 -49.81 C0.24 -46.64, -4.49 -40.14, -6.12 -35.42 C-7.76 -30.7, -7.34 -27.14, -6.52 -21.49 C-5.7 -15.84, -2.2 -5.2, -1.2 -1.51" stroke="#000000" stroke-width="1" fill="none"></path></g></g><mask></mask><g stroke-linecap="round"><g transform="translate(17.08198809774194 71.64119287687436) rotate(0 25.018094763566637 -25.931163915521665)"><path d="M0 0 C8.28 -5.3, 41.33 -24.59, 49.67 -31.77 C58.01 -38.96, 51.5 -40.24, 50.04 -43.1 C48.58 -45.96, 43.95 -47.48, 40.91 -48.94 C37.86 -50.4, 35.12 -51.38, 31.77 -51.86 C28.43 -52.35, 25.08 -52.53, 20.82 -51.86 C16.56 -51.19, 8.64 -48.51, 6.21 -47.84 M0 0 C8.28 -5.3, 41.33 -24.59, 49.67 -31.77 C58.01 -38.96, 51.5 -40.24, 50.04 -43.1 C48.58 -45.96, 43.95 -47.48, 40.91 -48.94 C37.86 -50.4, 35.12 -51.38, 31.77 -51.86 C28.43 -52.35, 25.08 -52.53, 20.82 -51.86 C16.56 -51.19, 8.64 -48.51, 6.21 -47.84" stroke="#000000" stroke-width="1" fill="none"></path></g></g><mask></mask><g stroke-linecap="round"><g transform="translate(16.876596321940724 81.33991869285683) rotate(0 12.687604931220562 -5.9975470556451)" fill-rule="evenodd"><path d="M0 0 L23.43 -13.89 L25.38 -11.62 L1.23 1.89 L0 0" stroke="none" stroke-width="0" fill="#fa5252" fill-rule="evenodd"></path><path d="M0 0 C8.74 -5.18, 17.47 -10.35, 23.43 -13.89 M0 0 C8.94 -5.3, 17.88 -10.6, 23.43 -13.89 M23.43 -13.89 C23.94 -13.3, 24.44 -12.71, 25.38 -11.62 M23.43 -13.89 C23.9 -13.34, 24.37 -12.8, 25.38 -11.62 M25.38 -11.62 C17.18 -7.03, 8.99 -2.45, 1.23 1.89 M25.38 -11.62 C16.04 -6.39, 6.7 -1.17, 1.23 1.89 M1.23 1.89 C0.74 1.15, 0.26 0.4, 0 0 M1.23 1.89 C0.91 1.4, 0.59 0.91, 0 0 M0 0 C0 0, 0 0, 0 0 M0 0 C0 0, 0 0, 0 0" stroke="#000000" stroke-width="1" fill="none"></path></g></g><mask></mask><g stroke-linecap="round"><g transform="translate(40.747185264114705 67.1765902744578) rotate(0 3.205192678166327 0.24057891608345017)" fill-rule="evenodd"><path d="M0 0 L6.41 -1.61 L1.79 2.09" stroke="none" stroke-width="0" fill="#fab005" fill-rule="evenodd"></path><path d="M0 0 C1.78 -0.45, 3.56 -0.89, 6.41 -1.61 M0 0 C1.76 -0.44, 3.53 -0.88, 6.41 -1.61 M6.41 -1.61 C5.48 -0.86, 4.54 -0.11, 1.79 2.09 M6.41 -1.61 C4.66 -0.21, 2.92 1.19, 1.79 2.09 M1.79 2.09 C1.18 1.38, 0.57 0.67, 0 0 M1.79 2.09 C1.08 1.26, 0.37 0.44, 0 0" stroke="#000000" stroke-width="1" fill="none"></path></g></g><mask></mask></svg>
