<svg version="1.1" xmlns="http://www.w3.org/2000/svg" viewBox="0 0 280.0902104599338 229.8454524636768" width="560.1804209198676" height="459.6909049273536"><!-- svg-source:excalidraw --><metadata></metadata><defs><style class="style-fonts">
      </style></defs><rect x="0" y="0" width="280.0902104599338" height="229.8454524636768" fill="#ffffff"></rect><g stroke-opacity="0.8" fill-opacity="0.8" stroke-linecap="round" transform="translate(117.48767437283368 14.151963747810441) rotate(0 37.5 35.416666666666515)"><path d="M8.08 12.32 C8.08 12.32, 8.08 12.32, 8.08 12.32 M8.08 12.32 C8.08 12.32, 8.08 12.32, 8.08 12.32 M3.12 36.52 C9.12 22.83, 16.48 15.05, 27.18 0.31 M0.98 35.25 C12.61 20.56, 20.17 8.7, 27.54 2.07 M5.56 42.15 C17.97 24.96, 26.47 14.35, 37.8 1.18 M2.91 43.76 C10.67 35.14, 17.5 27.71, 37.36 0.7 M5.31 49.44 C16.95 38.3, 33.77 21.45, 46.34 -0.45 M7.7 51.55 C16.29 37.47, 24.95 28.57, 49.13 3 M12.36 54.83 C23.17 49.06, 30.12 33.79, 55.97 4.12 M10.77 57.38 C20.98 45.33, 32.29 32.45, 57.06 3.91 M18.84 65.97 C28.45 55.77, 33.79 42.27, 67.11 8.38 M18.55 65.2 C32.06 43.92, 47.68 26.98, 61.64 11.84 M19.25 71.35 C36.32 57.68, 40.41 43.31, 73.11 18.56 M21.29 67.95 C35.2 56.78, 46.59 42.08, 67.95 16.99 M30.59 73.37 C42.88 58.16, 61.32 41.1, 73.12 22.46 M31.91 69.08 C43.88 57.02, 58.21 43.27, 75.27 22.48 M40.75 68.09 C57.06 55.43, 67.82 41.21, 73.59 33.59 M43.14 72.48 C50.46 60.92, 60.2 47.16, 77.21 32.81 M59.76 60.93 C59.97 61.25, 64.75 60.46, 71.18 50.81 M57.39 62.63 C61.99 60.37, 66.46 58.7, 73.38 47.77" stroke="#ffffff" stroke-width="1" fill="none"></path><path d="M26.87 1.95 C33.43 -0.62, 43.36 -0.83, 50.62 1.45 C57.88 3.73, 66.13 9.8, 70.42 15.62 C74.71 21.43, 76.75 29.24, 76.36 36.33 C75.97 43.42, 73.25 52.42, 68.08 58.18 C62.9 63.93, 52.94 68.97, 45.32 70.85 C37.7 72.73, 28.77 72.35, 22.36 69.44 C15.94 66.54, 10.55 59.38, 6.83 53.44 C3.1 47.51, -0.18 40.68, 0.01 33.85 C0.21 27.01, 1.99 17.92, 7.98 12.44 C13.97 6.95, 30.39 3.12, 35.97 0.92 C41.54 -1.28, 41.55 -1.36, 41.44 -0.78 M6.39 11.77 C10.11 6.21, 18.86 4.37, 26.07 2.36 C33.28 0.34, 42.34 -2.09, 49.64 -0.32 C56.94 1.44, 66.13 7.08, 69.88 12.95 C73.64 18.82, 72.3 27.85, 72.17 34.9 C72.03 41.95, 73.37 49.02, 69.07 55.25 C64.76 61.48, 53.89 69.58, 46.33 72.28 C38.77 74.97, 29.9 74.54, 23.69 71.41 C17.48 68.28, 13.5 59.69, 9.09 53.52 C4.68 47.35, -2.56 40.76, -2.76 34.4 C-2.95 28.04, 6.05 18.34, 7.92 15.37 C9.8 12.4, 8.29 16.76, 8.49 16.58" stroke="#000000" stroke-width="2" fill="none"></path></g><g stroke-linecap="round"><g stroke-opacity="0.8" fill-opacity="0.8" transform="translate(141.3568966570922 84.03274146355261) rotate(0 30.190888109258935 26.5228917547729)" fill-rule="evenodd"><path d="M1.64 -1.51 C2.33 3.35, 2.16 19.36, 2.21 28.98 C2.26 38.6, -3.29 51.44, 1.94 56.21 C7.17 60.98, 23.58 65.81, 33.61 57.59 C43.65 49.38, 60.72 17.48, 62.15 6.91 C63.57 -3.66, 49.27 -3.98, 42.14 -5.83 C35.02 -7.68, 26.58 -5.39, 19.39 -4.2 C12.19 -3.02, 2.28 1.14, -1.02 1.28" stroke="none" stroke-width="0" fill="#228be6" fill-rule="evenodd"></path><path d="M-0.7 -0.39 C-0.08 4.41, 5.14 16.8, 5.46 26.75 C5.77 36.71, -3.95 53.65, 1.2 59.32 C6.35 64.99, 26.69 68.49, 36.34 60.76 C45.99 53.03, 58.48 23.88, 59.12 12.94 C59.75 1.99, 46.44 -2.26, 40.16 -4.92 C33.88 -7.59, 27.88 -3.59, 21.45 -3.06 C15.01 -2.52, 4.86 -2.49, 1.55 -1.74 M4.12 -3.07 C4.44 2.22, 5.27 18.5, 4.59 29.32 C3.91 40.13, -5.21 57.45, 0.05 61.84 C5.3 66.22, 25.52 63.45, 36.11 55.64 C46.7 47.83, 62.54 25.23, 63.6 14.95 C64.65 4.67, 49.18 -3.78, 42.42 -6.05 C35.67 -8.32, 30.12 0.91, 23.05 1.34 C15.97 1.76, 4.06 -3.09, -0.03 -3.49" stroke="#000000" stroke-width="2" fill="none"></path></g></g><mask></mask><g stroke-linecap="round"><g stroke-opacity="0.8" fill-opacity="0.8" transform="translate(140.2190767427537 144.03227829945854) rotate(0 -15.385763686209202 38.464409215523574)"><path d="M-2.81 1.72 C-3.76 13.82, -1.83 30, -4.53 54.74 M1.11 -1.24 C-1.67 23.23, -6.54 44.42, -6.66 56.86 M-11.26 53.68 C-15.36 64.87, -24.3 68.76, -29.36 75.18 M-7.61 56 C-11.82 60.55, -20.06 65.63, -29.59 75.81" stroke="#000000" stroke-width="2" fill="none"></path></g></g><mask></mask><g stroke-linecap="round"><g stroke-opacity="0.8" fill-opacity="0.8" transform="translate(180.67793680648992 145.17196449843732) rotate(0 10.827018890295221 33.05089977037551)"><path d="M-1.56 -2.14 C0.63 22.88, 0.21 46.54, 1.21 63.47 M1.13 1.04 C-0.69 14.43, 0.41 28.33, -2.61 63.37 M-3.63 64.87 C3.02 64.75, 17.13 63.97, 21.08 65.16 M-1.26 61.69 C4.46 63.68, 16.15 64.42, 22.67 68.05" stroke="#000000" stroke-width="2" fill="none"></path></g></g><mask></mask><g stroke-linecap="round"><g stroke-opacity="0.8" fill-opacity="0.8" transform="translate(137.36986124530813 85.90828215155761) rotate(0 -8.985893202155921 33.935244163259085)"><path d="M2.41 -1.81 C-3.49 5.78, -9.03 17.6, -20.79 27.85 M-0.87 -0.07 C-3.23 5.6, -8.59 12.51, -17.08 23.71 M-21.65 25.65 C-13.71 30.38, -14.91 37.81, -1.7 57.8 M-19.85 24.72 C-13.1 32, -12.19 42.3, -3.78 59.93 M-2.97 58.35 C-1.14 62.07, 0.28 64.58, -1.69 66.97 M-3.11 57.79 C-1.78 60.85, -2.42 64.42, -0.54 67.48" stroke="#000000" stroke-width="2" fill="none"></path></g></g><mask></mask><g stroke-linecap="round"><g stroke-opacity="0.8" fill-opacity="0.8" transform="translate(189.65693038683298 75.16695651315786) rotate(0 38.08671741246667 -30.95206480699221)"><path d="M-1.27 2.01 C5.16 -2.11, 24.1 -12.07, 37.03 -23.06 C49.96 -34.04, 69.54 -57.11, 76.33 -63.88 M3.24 0.64 C10.69 -4.37, 30.47 -16.33, 42.36 -26.74 C54.26 -37.15, 68.47 -55.96, 74.6 -61.83" stroke="#000000" stroke-width="2" fill="none"></path></g></g><mask></mask><g stroke-linecap="round"><g stroke-opacity="0.8" fill-opacity="0.8" transform="translate(263.20216533274083 26.74175338543955) rotate(168.18188638823023 3.942299818538004 -7.446566323905245)"><path d="M-0.84 1.05 C0.57 -0.4, 7.26 -5.07, 7.95 -7.85 C8.64 -10.63, 4.07 -14.57, 3.29 -15.64 M0.91 0.55 C2.22 -0.84, 6.71 -4.22, 7.04 -6.76 C7.36 -9.3, 3.4 -13.09, 2.88 -14.71" stroke="#000000" stroke-width="2" fill="none"></path></g></g><mask></mask><g stroke-opacity="0.8" fill-opacity="0.8" transform="translate(153.3725123688664 45.36820012271164) rotate(0 0.00004999999998744897 0.00005000000010113581)" stroke="none"><path fill="#000000" d="M 1.57,-1.57 Q 1.57,-1.57 1.77,-1.27 1.98,-0.98 2.09,-0.64 2.20,-0.29 2.19,0.05 2.18,0.41 2.05,0.75 1.93,1.09 1.70,1.37 1.48,1.65 1.18,1.84 0.87,2.04 0.52,2.12 0.18,2.21 -0.17,2.18 -0.53,2.15 -0.86,2.01 -1.19,1.87 -1.46,1.63 -1.73,1.39 -1.90,1.07 -2.08,0.76 -2.15,0.41 -2.21,0.05 -2.17,-0.29 -2.12,-0.65 -1.96,-0.97 -1.80,-1.29 -1.54,-1.54 -1.29,-1.80 -0.97,-1.96 -0.65,-2.12 -0.29,-2.17 0.06,-2.21 0.41,-2.15 0.76,-2.08 1.07,-1.90 1.39,-1.73 1.63,-1.46 1.87,-1.19 2.01,-0.86 2.15,-0.53 2.18,-0.17 2.21,0.18 2.12,0.52 2.03,0.87 1.84,1.18 1.65,1.48 1.37,1.70 1.09,1.93 0.75,2.05 0.41,2.18 0.05,2.19 -0.30,2.20 -0.64,2.09 -0.98,1.98 -1.27,1.77 -1.57,1.56 -1.57,1.57 -1.57,1.57 -1.73,1.35 -1.90,1.14 -2.01,0.90 -2.12,0.66 -2.16,0.39 -2.21,0.13 -2.20,-0.13 -2.18,-0.40 -2.10,-0.65 -2.02,-0.91 -1.88,-1.14 -1.74,-1.36 -1.55,-1.55 -1.36,-1.74 -1.14,-1.88 -0.91,-2.02 -0.65,-2.10 -0.40,-2.18 -0.13,-2.20 0.13,-2.21 0.39,-2.16 0.66,-2.12 0.90,-2.01 1.14,-1.90 1.35,-1.73 1.57,-1.57 1.57,-1.57 L 1.57,-1.57 Z"></path></g><g stroke-opacity="0.8" fill-opacity="0.8" transform="translate(173.94155578307345 41.04060067090904) rotate(0 0 -0.721266575300433)" stroke="none"><path d="" stroke="#ffffff" stroke-width="0.5" fill="none"></path><path fill="#000000" d="M 2.12,-0.66 Q 2.12,-0.66 2.15,-0.13 2.18,0.40 1.96,0.88 1.74,1.36 1.32,1.69 0.91,2.02 0.38,2.12 -0.13,2.21 -0.64,2.05 -1.14,1.90 -1.52,1.52 -1.90,1.14 -2.05,0.64 -2.21,0.13 -2.12,-0.38 -2.02,-0.91 -1.69,-1.32 -1.36,-1.74 -0.88,-1.96 -0.39,-2.18 0.13,-2.15 0.66,-2.11 1.11,-1.84 1.57,-1.56 1.84,-1.11 L 2.12,-0.66 Z"></path></g><g stroke-linecap="round"><g stroke-opacity="0.8" fill-opacity="0.8" transform="translate(161.13431321703047 58.504189339320874) rotate(180.707313349537 6.6169184039983975 -2.4813444014994275)"><path d="M0.31 0.29 C1.05 -0.49, 2.54 -4.72, 4.72 -4.98 C6.91 -5.24, 12.04 -1.94, 13.44 -1.29 M-0.19 -0.04 C0.43 -0.69, 1.94 -4.17, 4.17 -4.29 C6.4 -4.42, 11.69 -1.41, 13.2 -0.79" stroke="#000000" stroke-width="1" fill="none"></path></g></g><mask></mask><g stroke-linecap="round"><g stroke-opacity="0.9" fill-opacity="0.9" transform="translate(172.15635026257996 88.05065576882862) rotate(0 8.833783885136882 11.561059074505238)" fill-rule="evenodd"><path d="M-0.7 0.15 L9.93 -3.53 L21.19 4.15 L13.91 26.86 L-2.32 12.31 L0.2 -0.31" stroke="none" stroke-width="0" fill="#fab005" fill-rule="evenodd"></path><path d="M0 0 C3.59 -1.13, 7.03 -2.79, 10.13 -3.81 M0 0 C2.83 -1.21, 6.3 -2.53, 10.13 -3.81 M10.13 -3.81 C12.92 -1.82, 16.81 0.39, 20.91 3.25 M10.13 -3.81 C12.24 -2.35, 15.13 -0.81, 20.91 3.25 M20.91 3.25 C20.09 9.65, 16.75 13.52, 13.29 26.93 M20.91 3.25 C18.71 10.61, 16.17 16.93, 13.29 26.93 M13.29 26.93 C8.23 23.2, 4.44 20.37, -3.25 13.25 M13.29 26.93 C8.69 22.94, 3.58 18.94, -3.25 13.25 M-3.25 13.25 C-1.88 9.23, -1.6 5.41, 0 0 M-3.25 13.25 C-2.79 10.35, -1.63 7.76, 0 0 M0 0 C0 0, 0 0, 0 0 M0 0 C0 0, 0 0, 0 0" stroke="#000000" stroke-width="2" fill="none"></path></g></g><mask></mask><g stroke-linecap="round"><g transform="translate(137.9494508478599 82.03198732717783) rotate(0 -61.91611514345243 49.05661430596615)" fill-rule="evenodd"><path d="M-2.3 -1.12 C-22.91 7.07, -107.59 37.58, -122.39 47.21 C-137.19 56.85, -94 52.13, -91.09 56.68 C-88.18 61.23, -111.25 70.57, -104.94 74.5 C-98.64 78.43, -61.79 76.36, -53.25 80.27 C-44.71 84.19, -58.63 95.29, -53.7 97.98 C-48.76 100.68, -32.61 112.47, -23.64 96.44 C-14.66 80.42, -3.57 18.14, 0.15 1.82" stroke="none" stroke-width="0" fill="#fa5252" fill-rule="evenodd"></path><path d="M0.45 -0.41 C-20.13 7.7, -109.12 39.73, -124.03 48.65 C-138.94 57.58, -92.18 49.25, -89.01 53.14 C-85.83 57.03, -110.7 67.38, -104.99 71.99 C-99.28 76.6, -63.69 76.39, -54.76 80.82 C-45.84 85.24, -56.51 96.27, -51.43 98.54 C-46.36 100.8, -32.86 110.76, -24.34 94.4 C-15.81 78.03, -4.32 16.24, -0.28 0.35 M-0.77 -1.68 C-21.49 6.65, -110.3 40.97, -125.08 50.23 C-139.87 59.48, -92.78 50.07, -89.49 53.85 C-86.21 57.62, -110.94 68.42, -105.35 72.88 C-99.77 77.34, -65.2 76.49, -55.98 80.63 C-46.76 84.77, -55.35 95.11, -50.02 97.72 C-44.69 100.32, -32.07 112.52, -23.97 96.26 C-15.88 80.01, -5.75 16.1, -1.45 0.19" stroke="#000000" stroke-width="2" fill="none"></path></g></g><mask></mask><g stroke-linecap="round"><g transform="translate(48.40922279425172 135.37510191230604) rotate(0 21.432501395810505 -10.001833984711539)"><path d="M-0.2 0.07 C6.96 -3.39, 36.41 -17.75, 43.4 -21.16 M-1.76 -0.94 C5.24 -4.25, 35.1 -17.17, 42.73 -20.23" stroke="#000000" stroke-width="2" fill="none"></path></g></g><mask></mask><g stroke-linecap="round"><g transform="translate(83.65378064514016 164.904326057645) rotate(0 10.001833984711539 -13.812056455077936)"><path d="M0.53 -1.16 C3.71 -5.84, 15.52 -23.44, 18.84 -28.03 M-0.65 0.85 C2.89 -3.67, 17.51 -21.9, 20.94 -26.71" stroke="#000000" stroke-width="2" fill="none"></path></g></g><mask></mask></svg>
