<svg version="1.1" xmlns="http://www.w3.org/2000/svg" viewBox="0 0 181.3829962384434 275.96367765457944" width="362.7659924768868" height="551.9273553091589"><!-- svg-source:excalidraw --><metadata></metadata><defs><style class="style-fonts">
      </style></defs><rect x="0" y="0" width="181.3829962384434" height="275.96367765457944" fill="#ffffff"></rect><g stroke-opacity="0.8" fill-opacity="0.8" stroke-linecap="round" transform="translate(47.186676428238115 40.779319427712835) rotate(0 37.5 35.416666666666515)"><path d="M10.19 12.84 C10.19 12.84, 10.19 12.84, 10.19 12.84 M10.19 12.84 C10.19 12.84, 10.19 12.84, 10.19 12.84 M4.79 36.51 C10.51 25.59, 23.65 16, 30.05 -1.6 M2.56 32.94 C15.58 21.92, 24.52 7.34, 31.29 1.26 M2.05 47.72 C20.16 29.03, 30.63 13.8, 39.49 4.88 M3.71 43.97 C13.49 32.52, 22.21 24.75, 42.78 2.34 M4.38 55.37 C12.99 46.7, 24.94 32.52, 47.49 0.61 M3.38 56.33 C20.74 40.27, 33.95 21.78, 50.86 4.86 M11.91 61.32 C30.01 42.92, 50.28 20.35, 56.97 9.97 M11.23 59.32 C20.78 47.96, 31.33 35.48, 58.2 5.47 M20.78 61.01 C33.25 51.69, 40.35 38.13, 60.76 8.89 M20.69 65.89 C31.96 49.22, 43.4 35.09, 65.9 10.7 M25.95 71.65 C34.54 58.99, 43.83 42.2, 67.45 13.31 M28.04 69.55 C41.29 51.7, 54 34.37, 69.65 15.97 M32.48 68.2 C43.54 62.88, 49.52 51.52, 70.58 24.79 M33.99 70.95 C49.13 52.04, 63.36 36.98, 73.27 27.98 M42.68 70.77 C52.24 63.87, 56.05 49.12, 73.54 37.57 M43.19 70 C50.01 64.41, 56.69 54.89, 75.91 34.39" stroke="#ffffff" stroke-width="1" fill="none"></path><path d="M53.37 2.38 C60.03 4.3, 65.68 9.57, 69.34 15.81 C72.99 22.06, 75.88 32.9, 75.3 39.86 C74.73 46.83, 70.85 52.37, 65.9 57.59 C60.95 62.82, 52.79 69.69, 45.59 71.2 C38.4 72.71, 29.67 69.34, 22.71 66.63 C15.75 63.93, 7.33 60.44, 3.84 54.96 C0.35 49.48, 0.7 40.8, 1.77 33.76 C2.85 26.72, 5.47 18.32, 10.28 12.74 C15.09 7.16, 20.67 -1.38, 30.63 0.3 C40.58 1.97, 63.28 15.12, 70.04 22.79 C76.8 30.45, 71.43 46.31, 71.2 46.27 M15.81 6.32 C21.55 2.55, 30.68 0.74, 38.57 0.83 C46.46 0.91, 57.38 2.36, 63.16 6.82 C68.94 11.27, 71.33 20.27, 73.24 27.56 C75.15 34.85, 77.25 44.43, 74.6 50.56 C71.96 56.69, 64.6 60.68, 57.37 64.34 C50.15 67.99, 38.52 72.86, 31.25 72.5 C23.99 72.14, 18.57 66.65, 13.8 62.16 C9.03 57.67, 4.12 52.79, 2.64 45.57 C1.16 38.34, 2.51 25.4, 4.92 18.81 C7.34 12.23, 15.01 8.58, 17.13 6.05 C19.26 3.52, 17.21 3.13, 17.68 3.61" stroke="#000000" stroke-width="2" fill="none"></path></g><g stroke-linecap="round"><g stroke-opacity="0.8" fill-opacity="0.8" transform="translate(69.80806607592763 111.61265276104677) rotate(0 21.61788755093471 28.428002989955985)" fill-rule="evenodd"><path d="M0 0 C0 0, 0 0, 0 0 M0 0 C0 0, 0 0, 0 0 M-1.86 13.12 C5.16 7.83, 9.05 6.32, 12.44 -2.51 M-0.16 11.07 C3.71 7.19, 4.85 5.44, 11.21 -1.48 M2.28 18.63 C4.78 14.52, 7.93 13.19, 20.43 0.74 M1.35 21.2 C6.49 16.27, 9.57 11.63, 17.93 3.36 M6.45 34.48 C13.43 17.4, 30.01 7.22, 32.11 -2.92 M2.35 32.45 C10.21 24.33, 19.94 15.23, 35.57 -3.72 M-2.29 52.14 C12.75 34.56, 27.29 12.13, 44.7 1.55 M0.42 49.81 C10.92 39.07, 18.3 26.03, 40.34 0.46 M-2.54 62.85 C10.69 43.04, 27.41 29.02, 41 7.02 M-0.13 59.54 C14.32 45.85, 30.19 25.66, 44.18 9.58 M12.59 62.48 C20.79 50.86, 31.08 31.02, 46.73 19.31 M7.79 62.02 C20.89 49, 30.37 39.66, 46.06 21.95 M17.48 65.49 C20.79 53.88, 28.93 49.71, 48.36 37.63 M18.36 64.39 C30.71 50.68, 37.83 40.15, 46.09 33.66 M29.6 59.49 C34.38 51.78, 41.88 50.51, 45.92 50.79 M32.43 59.81 C35.95 54.43, 39.55 49.19, 44.82 45.96" stroke="#ffffff" stroke-width="1" fill="none"></path><path d="M1.12 -0.58 C1.32 4.99, 2.91 24.39, 2.63 34.5 C2.36 44.6, -6.12 55.86, -0.55 60.06 C5.02 64.26, 28.41 65.8, 36.05 59.68 C43.69 53.57, 45.28 33.99, 45.27 23.35 C45.26 12.7, 40.48 -0.21, 35.99 -4.18 C31.5 -8.15, 24.68 -0.79, 18.35 -0.45 C12.02 -0.12, 0.78 -2.66, -1.99 -2.2 M-1.72 -3.36 C-2.03 1.32, 0.49 19.43, 0.34 30.48 C0.18 41.54, -8.55 57.62, -2.66 62.98 C3.23 68.33, 28.06 69.07, 35.66 62.62 C43.25 56.17, 42.42 35.89, 42.91 24.29 C43.4 12.69, 42.25 -2.29, 38.57 -6.97 C34.9 -11.65, 26.75 -4.27, 20.85 -3.81 C14.94 -3.34, 6.84 -4.88, 3.15 -4.2" stroke="#000000" stroke-width="2" fill="none"></path></g></g><mask></mask><g stroke-opacity="0.8" fill-opacity="0.8" transform="translate(75.98486596880934 79.96803531500791) rotate(0 0.00004999999998744897 0.00005000000010113581)" stroke="none"><path fill="#000000" d="M 1.57,-1.57 Q 1.57,-1.57 1.77,-1.27 1.98,-0.98 2.09,-0.64 2.20,-0.29 2.19,0.05 2.18,0.41 2.05,0.75 1.93,1.09 1.70,1.37 1.48,1.65 1.18,1.84 0.87,2.04 0.52,2.12 0.18,2.21 -0.17,2.18 -0.53,2.15 -0.86,2.01 -1.19,1.87 -1.46,1.63 -1.73,1.39 -1.90,1.07 -2.08,0.76 -2.15,0.41 -2.21,0.05 -2.17,-0.29 -2.12,-0.65 -1.96,-0.97 -1.80,-1.29 -1.54,-1.54 -1.29,-1.80 -0.97,-1.96 -0.65,-2.12 -0.29,-2.17 0.06,-2.21 0.41,-2.15 0.76,-2.08 1.07,-1.90 1.39,-1.73 1.63,-1.46 1.87,-1.19 2.01,-0.86 2.15,-0.53 2.18,-0.17 2.21,0.18 2.12,0.52 2.03,0.87 1.84,1.18 1.65,1.48 1.37,1.70 1.09,1.93 0.75,2.05 0.41,2.18 0.05,2.19 -0.30,2.20 -0.64,2.09 -0.98,1.98 -1.27,1.77 -1.57,1.56 -1.57,1.57 -1.57,1.57 -1.73,1.35 -1.90,1.14 -2.01,0.90 -2.12,0.66 -2.16,0.39 -2.21,0.13 -2.20,-0.13 -2.18,-0.40 -2.10,-0.65 -2.02,-0.91 -1.88,-1.14 -1.74,-1.36 -1.55,-1.55 -1.36,-1.74 -1.14,-1.88 -0.91,-2.02 -0.65,-2.10 -0.40,-2.18 -0.13,-2.20 0.13,-2.21 0.39,-2.16 0.66,-2.12 0.90,-2.01 1.14,-1.90 1.35,-1.73 1.57,-1.57 1.57,-1.57 L 1.57,-1.57 Z"></path></g><g stroke-opacity="0.8" fill-opacity="0.8" transform="translate(101.573618705635 69.14434144569941) rotate(0 0 -0.721266575300433)" stroke="none"><path d="" stroke="#ffffff" stroke-width="0.5" fill="none"></path><path fill="#000000" d="M 2.12,-0.66 Q 2.12,-0.66 2.15,-0.13 2.18,0.40 1.96,0.88 1.74,1.36 1.32,1.69 0.91,2.02 0.38,2.12 -0.13,2.21 -0.64,2.05 -1.14,1.90 -1.52,1.52 -1.90,1.14 -2.05,0.64 -2.21,0.13 -2.12,-0.38 -2.02,-0.91 -1.69,-1.32 -1.36,-1.74 -0.88,-1.96 -0.39,-2.18 0.13,-2.15 0.66,-2.11 1.11,-1.84 1.57,-1.56 1.84,-1.11 L 2.12,-0.66 Z"></path></g><g stroke-linecap="round"><g stroke-opacity="0.8" fill-opacity="0.8" transform="translate(90.53803825345744 85.13154501922327) rotate(180.707313349537 6.6169184039983975 -2.4813444014994275)"><path d="M-0.35 0.12 C0.56 -0.69, 3.14 -4.73, 5.36 -4.95 C7.58 -5.18, 11.59 -1.86, 12.96 -1.22 M0.47 -0.29 C1.35 -1.01, 3.14 -4.19, 5.14 -4.25 C7.14 -4.32, 11.02 -1.28, 12.48 -0.69" stroke="#000000" stroke-width="1" fill="none"></path></g></g><mask></mask><g stroke-linecap="round"><g transform="translate(77.7480644621312 60.42452086690446) rotate(0 13.178960305901228 8.748214088385339)"><path d="M0.87 0.02 C6.53 -1.46, 25.73 -9.57, 33.19 -8.62 C40.65 -7.66, 47.31 1.82, 45.65 5.76 C43.98 9.69, 27.99 14.37, 23.2 14.99 C18.42 15.61, 18.52 8.72, 16.94 9.48 C15.35 10.23, 18.04 16.62, 13.7 19.51 C9.35 22.41, -3.7 28.52, -9.13 26.84 C-14.56 25.17, -20.35 13.77, -18.89 9.45 C-17.43 5.13, -3.18 2.24, -0.35 0.92 M-0.13 -1.02 C6 -2.34, 28.02 -8.56, 35.59 -7.22 C43.16 -5.88, 47.39 3.2, 45.29 7 C43.19 10.8, 27.91 15.64, 23 15.6 C18.1 15.55, 17.7 6.18, 15.85 6.72 C13.99 7.26, 15.9 15.62, 11.87 18.83 C7.84 22.05, -3 27.13, -8.33 26.02 C-13.66 24.91, -21.25 16.03, -20.11 12.19 C-18.98 8.34, -4.65 4.78, -1.54 2.94" stroke="#000000" stroke-width="4" fill="none"></path></g></g><mask></mask><g stroke-linecap="round"><g transform="translate(56.46367933017359 71.28792839748758) rotate(0 -0.6199154317329203 -14.671331884345364)" fill-rule="evenodd"><path d="M-2.17 1.16 C-6.94 -7.89, -25.28 -44.71, -30.59 -53.66 C-35.91 -62.61, -40.55 -65.59, -34.06 -52.53 C-27.57 -39.47, -3.29 11.94, 8.34 24.7 C19.96 37.45, 32.01 25.76, 35.69 23.98 C39.38 22.19, 33.31 14.29, 30.45 13.99 C27.58 13.68, 21.36 21.15, 18.5 22.16 C15.65 23.16, 16.18 23.37, 13.34 20.02 C10.49 16.66, 3.4 5.7, 1.43 2.03" stroke="none" stroke-width="0" fill="#4c6ef5" fill-rule="evenodd"></path><path d="M-0.59 -0.26 C-5.36 -9.32, -21.92 -45.75, -27.75 -54.34 C-33.58 -62.92, -41.82 -65.14, -35.57 -51.77 C-29.31 -38.41, -1.86 13.24, 9.78 25.84 C21.42 38.44, 30.9 25.43, 34.28 23.83 C37.65 22.24, 32.38 17, 30.05 16.29 C27.72 15.57, 23.08 19.05, 20.28 19.56 C17.49 20.07, 16.79 22.59, 13.3 19.35 C9.81 16.11, 1.58 3.47, -0.65 0.14 M1.3 -1.45 C-3.64 -10.32, -22.56 -44.62, -28.29 -52.87 C-34.03 -61.12, -39.57 -63.73, -33.12 -50.95 C-26.67 -38.17, -0.65 11.21, 10.41 23.8 C21.47 36.39, 30.3 25.92, 33.23 24.59 C36.15 23.25, 30.03 16.32, 27.95 15.77 C25.87 15.22, 23.26 20.79, 20.73 21.29 C18.19 21.79, 16.04 22.5, 12.75 18.76 C9.46 15.01, 3.02 2.19, 1 -1.17" stroke="#343a40" stroke-width="1" fill="none"></path></g></g><mask></mask><g stroke-linecap="round" transform="translate(18.703301679911874 11.900108310660471) rotate(0 4.445317965723348 3.4194753582487465)"><path d="M3.99 -0.25 C4.87 -0.36, 6.1 0.2, 6.89 0.63 C7.68 1.07, 8.43 1.69, 8.72 2.35 C9 3.01, 8.99 3.96, 8.58 4.61 C8.17 5.25, 7.19 5.84, 6.26 6.22 C5.33 6.6, 3.89 7.07, 3.01 6.91 C2.13 6.74, 1.47 5.84, 0.99 5.25 C0.5 4.66, 0.04 4.09, 0.11 3.36 C0.19 2.63, 0.81 1.37, 1.46 0.86 C2.1 0.36, 3.5 0.49, 3.98 0.33 C4.45 0.16, 4.25 -0.1, 4.29 -0.13 M4.95 0.03 C5.84 0.2, 7.24 1.02, 7.91 1.61 C8.59 2.21, 9.04 2.89, 9.01 3.6 C8.99 4.31, 8.34 5.31, 7.77 5.87 C7.2 6.42, 6.56 6.78, 5.6 6.94 C4.65 7.1, 2.96 7.13, 2.04 6.82 C1.12 6.52, 0.43 5.87, 0.08 5.09 C-0.27 4.31, -0.48 2.89, -0.08 2.14 C0.32 1.39, 1.67 0.93, 2.49 0.62 C3.3 0.3, 4.44 0.32, 4.8 0.26 C5.16 0.19, 4.58 0.16, 4.66 0.24" stroke="none" stroke-width="0" fill="#4c6ef5"></path><path d="M4.19 0.25 C5.16 0.1, 6.27 0.29, 7.07 0.64 C7.87 0.99, 8.79 1.6, 8.98 2.33 C9.17 3.06, 8.67 4.36, 8.22 5.02 C7.78 5.68, 7.11 6.01, 6.31 6.29 C5.52 6.58, 4.4 6.9, 3.47 6.72 C2.53 6.54, 1.27 5.83, 0.71 5.2 C0.15 4.57, -0.02 3.67, 0.09 2.93 C0.2 2.2, 0.7 1.27, 1.36 0.8 C2.03 0.33, 3.67 0.24, 4.09 0.11 C4.51 -0.03, 3.9 -0.11, 3.89 -0.02 M4.26 0.31 C5.17 0.36, 6.87 0.45, 7.68 0.97 C8.5 1.49, 9.02 2.78, 9.15 3.43 C9.28 4.09, 9.07 4.31, 8.46 4.88 C7.86 5.46, 6.5 6.66, 5.5 6.89 C4.51 7.11, 3.34 6.54, 2.5 6.24 C1.65 5.95, 0.87 5.77, 0.41 5.12 C-0.06 4.47, -0.53 3.05, -0.31 2.34 C-0.09 1.64, 0.99 1.33, 1.74 0.87 C2.49 0.42, 3.75 -0.23, 4.21 -0.36 C4.68 -0.5, 4.45 0.02, 4.54 0.06" stroke="#000000" stroke-width="1" fill="none"></path></g><g stroke-linecap="round"><g stroke-opacity="0.8" fill-opacity="0.8" transform="translate(91.09076876174527 172.5023136064233) rotate(0 -21.80353786109265 39.53248443590496)"><path d="M-3.14 2.44 C-2.46 27.99, -9.03 51.82, -11.98 68.74 M-1.08 0.23 C-2.28 13.35, -6.92 29.45, -17.07 70.95 M-18.07 68.85 C-21.63 75.73, -26.12 75.19, -45.74 75.54 M-14.14 71.67 C-24.24 71.67, -36.56 77.36, -44.39 77.8" stroke="#000000" stroke-width="2" fill="none"></path></g></g><mask></mask><g stroke-linecap="round"><g stroke-opacity="0.8" fill-opacity="0.8" transform="translate(111.03931859848603 167.21760516629638) rotate(0 23.314443995245142 43.189721226835445)"><path d="M3.28 2.67 C1.37 18.19, 2.66 33.19, -2.56 78.3 M-0.16 -1.06 C-2.13 20.04, -2 40.02, -0.55 75.73 M0.87 78.91 C17.21 80.31, 28.59 79.28, 49.07 87.91 M2.34 73.64 C14.35 78.71, 28.45 80.09, 46.35 87.04" stroke="#000000" stroke-width="2" fill="none"></path></g></g><mask></mask><g stroke-linecap="round"><g transform="translate(24.475398831247958 246.6695667135309) rotate(0 25.747532560881268 7.928407571454272)" fill-rule="evenodd"><path d="M-1.98 0.61 C-1.02 4.07, -2.99 19.85, 5.57 19.43 C14.14 19.02, 50.25 1.64, 49.43 -1.88 C48.61 -5.4, 9.02 -1.98, 0.66 -1.69" stroke="none" stroke-width="0" fill="#868e96" fill-rule="evenodd"></path><path d="M0.8 0.69 C2.02 3.74, -0.35 19.97, 8.03 19.27 C16.42 18.57, 52.3 -0.23, 51.12 -3.53 C49.93 -6.82, 9.53 -1.1, 0.9 -0.49 M-0.24 0.01 C0.78 2.65, -1.16 18.14, 7.24 17.67 C15.64 17.21, 51.09 0.09, 50.15 -2.79 C49.22 -5.68, 9.78 -0.2, 1.62 0.36" stroke="#000000" stroke-width="1" fill="none"></path></g></g><mask></mask><g stroke-linecap="round"><g transform="translate(135.30675124424442 265.35158996624705) rotate(266.9059419410828 7.503195420012162 -18.74745350325543)" fill-rule="evenodd"><path d="M-2.17 1.16 C0.31 2.47, 9.91 16.54, 12.88 8.49 C15.85 0.44, 17.93 -45.69, 15.66 -47.14 C13.4 -48.58, 1.53 -8.16, -0.71 -0.16" stroke="none" stroke-width="0" fill="#868e96" fill-rule="evenodd"></path><path d="M0.29 1 C2.58 2.02, 11.96 14.66, 14.56 6.84 C17.17 -0.98, 18.44 -44.81, 15.91 -45.93 C13.37 -47.04, 2.02 -7.41, -0.65 0.14 M-1.02 0.47 C1.02 1.55, 10.64 15.35, 13.42 7.79 C16.19 0.24, 17.98 -43.78, 15.62 -44.86 C13.26 -45.94, 2.13 -6.07, -0.74 1.31" stroke="#000000" stroke-width="1" fill="none"></path></g></g><mask></mask><g stroke-linecap="round"><g stroke-opacity="0.8" fill-opacity="0.8" transform="translate(98.60073960532986 113.67235596187811) rotate(0 32.844998474831414 18.824895232304243)"><path d="M-3.69 3.01 C8.49 10.23, 20.05 24.29, 27.12 34.42 M-1.68 0.44 C9.38 10.58, 17.77 24.07, 31.06 38.33 M31.69 39.18 C40.18 34.43, 53.64 28.39, 57.75 17.22 M28.97 38.31 C38.45 30.58, 50.73 26.22, 59.11 17.53 M59.25 18.59 C60.72 16.06, 63.47 15.29, 65.03 9.73 M60.42 19.37 C61.42 16.99, 62.54 14.4, 66.22 11.74" stroke="#000000" stroke-width="2" fill="none"></path></g></g><mask></mask><g stroke-linecap="round"><g stroke-opacity="0.8" fill-opacity="0.8" transform="translate(109.39972984695555 108.87707242406941) rotate(0 28.574794333585146 -5.899894915690993)"><path d="M-1.62 -2.16 C10.44 3.61, 18.15 5.2, 39.36 13.23 M0.54 -1.38 C12.46 5.52, 28.17 12.16, 38.92 15.71 M38.65 19.11 C45.22 11.42, 42.58 -0.41, 58.69 -20.8 M36.65 15.61 C42.73 8.91, 45.42 -1.87, 56.53 -19.29 M55.46 -20.1 C56.35 -21.65, 54.83 -26.7, 53.44 -28.64 M56.28 -19.26 C55.54 -22.57, 56.22 -23.97, 54.05 -28.3" stroke="#000000" stroke-width="2" fill="none"></path></g></g><mask></mask><g stroke-linecap="round"><g transform="translate(26.846871889526938 256.16443279000896) rotate(0 8.355192509859421 -1.986944482466015)"><path d="M-0.3 0.06 C2.41 -0.61, 13.91 -3.62, 16.67 -4.27 M0.55 -0.38 C3.15 -0.97, 13.41 -3.25, 16.21 -3.72" stroke="#000000" stroke-width="1" fill="none"></path></g></g><mask></mask><g stroke-linecap="round"><g transform="translate(166.09305609388366 249.21454406060866) rotate(0 -5.93795094233883 -1.32345893942761)"><path d="M-0.04 -0.29 C-2.05 -0.72, -10.27 -2.16, -12.32 -2.51 M-0.73 0.75 C-2.54 0.14, -9.55 -2.73, -11.31 -3.4" stroke="#000000" stroke-width="1" fill="none"></path></g></g><mask></mask><g stroke-linecap="round"><g transform="translate(49.44245535514392 88.24065127231552) rotate(0 6.207651317316049 -4.697682077968921)"><path d="M-0.44 0.14 C1.55 -1.34, 9.86 -7.57, 11.93 -9.14 M0.33 -0.27 C2.49 -1.88, 10.79 -8.58, 12.91 -9.97" stroke="#000000" stroke-width="4" fill="none"></path></g></g><mask></mask><g stroke-linecap="round"><g transform="translate(63.70959670621937 118.90771947855274) rotate(0 -26.19846796998138 23.525486285193892)" fill-rule="evenodd"><path d="M0.94 0.18 C-7.2 8.11, -47.4 42.96, -50.97 49.08 C-54.53 55.21, -28.49 37.57, -20.45 36.95 C-12.41 36.32, -5.98 51.73, -2.73 45.31 C0.52 38.89, -1.35 5.87, -0.96 -1.55" stroke="none" stroke-width="0" fill="#868e96" fill-rule="evenodd"></path><path d="M-1.06 0.57 C-9.8 8.4, -49.98 41.06, -53.41 47.32 C-56.83 53.58, -30.18 38.64, -21.61 38.13 C-13.03 37.63, -5.76 50.58, -1.98 44.29 C1.8 38, 0.7 7.9, 1.09 0.41 M0.58 -0.18 C-7.71 7.25, -47.43 38.8, -51.23 45.33 C-55.02 51.87, -30.42 39.01, -22.2 39.02 C-13.98 39.02, -5.65 51.69, -1.92 45.35 C1.81 39.02, 0.15 8.3, 0.18 1.01" stroke="#000000" stroke-width="1" fill="none"></path></g></g><mask></mask><g stroke-linecap="round" transform="translate(63.31787893102205 112.28910506357852) rotate(0 3.570714848197781 27.91649790409201)"><path d="M1.79 0 C2.89 0.19, 3.04 -0.18, 5.36 0 C4.57 -0.2, 6.89 -1.54, 7.14 1.79 C4.68 20.09, 7.12 40.47, 7.14 54.05 C4.79 53.53, 7.29 57.35, 5.36 55.83 C4.28 56.25, 3.42 55.48, 1.79 55.83 C0.02 55.75, 1.19 55.32, 0 54.05 C-1.2 36.7, -2.62 13.64, 0 1.79 C0.86 -0.46, 0.37 -2.55, 1.79 0" stroke="none" stroke-width="0" fill="#868e96"></path><path d="M1.79 0 C2.58 0.06, 3.17 -0.04, 5.36 0 M1.79 0 C2.86 -0.05, 3.8 0.05, 5.36 0 M5.36 0 C6.93 0.07, 7.72 1.43, 7.14 1.79 M5.36 0 C7.24 -0.95, 6.63 1.04, 7.14 1.79 M7.14 1.79 C7.3 14.57, 6.39 28.96, 7.14 54.05 M7.14 1.79 C6.73 19.48, 6.98 36.72, 7.14 54.05 M7.14 54.05 C6.91 54.37, 6.1 55.79, 5.36 55.83 M7.14 54.05 C7.47 54.82, 5.65 55.3, 5.36 55.83 M5.36 55.83 C4.37 55.66, 3.23 55.65, 1.79 55.83 M5.36 55.83 C4.5 55.87, 3.78 55.88, 1.79 55.83 M1.79 55.83 C0.28 55.25, 0.96 55.41, 0 54.05 M1.79 55.83 C-0.1 55.89, -0.57 56.28, 0 54.05 M0 54.05 C0.07 36.58, 1 18.84, 0 1.79 M0 54.05 C0.36 35.77, -0.19 17.55, 0 1.79 M0 1.79 C-0.45 1.45, -0.03 -0.37, 1.79 0 M0 1.79 C0.82 0.86, -0.12 0.5, 1.79 0" stroke="#000000" stroke-width="4" fill="none"></path></g></svg>
